<?xml version="1.0" standalone="no"?>
<!DOCTYPE svg PUBLIC "-//W3C//DTD SVG 20010904//EN"
 "http://www.w3.org/TR/2001/REC-SVG-20010904/DTD/svg10.dtd">
<svg version="1.0" xmlns="http://www.w3.org/2000/svg"
 width="247.000000pt" height="148.000000pt" viewBox="0 0 247.000000 148.000000"
 preserveAspectRatio="xMidYMid meet">
<metadata>
Created by potrace 1.10, written by Peter Selinger 2001-2011
</metadata>
<g transform="translate(0.000000,148.000000) scale(0.100000,-0.100000)"
fill="#000000" stroke="none">
<path d="M1094 1200 c-152 -50 -278 -176 -319 -319 -22 -77 -27 -142 -15 -216
51 -323 405 -500 700 -350 54 28 56 31 35 59 -13 18 -15 18 -60 -4 -175 -85
-347 -61 -486 68 -228 210 -153 579 141 696 25 10 81 20 125 23 65 4 92 1 144
-17 115 -38 199 -111 251 -215 63 -125 60 -261 -8 -387 -20 -37 -37 -66 -38
-65 -1 1 -25 31 -53 67 -29 36 -68 82 -88 103 -19 21 -33 40 -32 41 2 2 19 11
36 20 64 32 88 108 54 173 -29 57 -68 73 -183 73 l-93 0 3 -95 4 -95 -96 0
-95 0 6 95 6 95 -34 0 -34 0 0 -210 0 -210 33 0 33 0 -3 87 -3 88 93 3 93 3
-3 -91 -3 -90 33 0 32 0 -4 180 c-2 98 -2 181 0 182 1 2 33 1 70 -2 53 -5 70
-10 85 -29 26 -32 24 -67 -6 -96 -19 -20 -34 -25 -75 -25 -35 0 -50 -4 -50
-13 0 -7 42 -63 93 -124 150 -180 172 -206 177 -213 6 -9 90 -20 90 -12 0 3
-10 16 -21 28 l-21 23 35 58 c88 148 96 309 23 469 -38 83 -137 176 -232 221
-69 32 -89 36 -178 39 -82 3 -113 0 -162 -16z"/>
</g>
</svg>
